<?xml version="1.0" encoding="utf-8"?>
<!-- Generator: Adobe Illustrator 26.0.0, SVG Export Plug-In . SVG Version: 6.00 Build 0)  -->
<svg version="1.1" id="Capa_1" xmlns="http://www.w3.org/2000/svg" xmlns:xlink="http://www.w3.org/1999/xlink" x="0px" y="0px"
	 viewBox="0 0 24 24" style="enable-background:new 0 0 24 24;" xml:space="preserve">
<style type="text/css">
	.st0{fill:#F1F1F1;}
</style>
<path class="st0" d="M19,6h-3V5c0-1.1-0.9-2-2-2h-4C8.9,3,8,3.9,8,5v1H5C3.3,6,2,7.3,2,9v9c0,1.7,1.3,3,3,3h14c1.7,0,3-1.3,3-3V9
	C22,7.3,20.7,6,19,6z M10,5h4v1h-4V5z M20,18c0,0.6-0.4,1-1,1H5c-0.6,0-1-0.4-1-1v-5.6L8.7,14c0.1,0,0.2,0,0.3,0h6
	c0.1,0,0.2,0,0.3-0.1l4.7-1.6V18z M20,10.3L14.8,12H9.2L4,10.3V9c0-0.6,0.4-1,1-1h14c0.6,0,1,0.4,1,1V10.3z"/>
</svg>
