<svg width="78" height="79" viewBox="0 0 78 79" fill="none" xmlns="http://www.w3.org/2000/svg">
<path d="M58.4902 10.043H19.5138C16.9302 10.0507 14.4547 11.0806 12.6282 12.9078C10.8016 14.735 9.77248 17.2108 9.76562 19.7944V58.7675C9.77504 61.3497 10.8052 63.8234 12.6314 65.649C14.4576 67.4746 16.9316 68.5039 19.5138 68.5124H58.4902C61.0718 68.503 63.545 67.4733 65.3705 65.6478C67.196 63.8223 68.2257 61.3492 68.2351 58.7675V19.7944C68.2274 17.2116 67.1984 14.7368 65.3728 12.9099C63.5471 11.083 61.0729 10.0524 58.4902 10.043ZM53.1647 51.1106C52.6712 52.2796 51.9016 53.3187 50.9144 54.1208C49.7471 55.0273 48.4181 55.7039 46.9983 56.1146C45.4071 56.6049 43.5108 56.8582 41.3156 56.8582H25.6478V22.7461H42.2184C45.2805 22.7461 47.7386 23.4378 49.5798 24.8438C51.4275 26.2596 52.3529 28.3573 52.3529 31.2019C52.3529 32.9164 51.9308 34.3939 51.0898 35.6083C50.2487 36.8196 49.044 37.7645 47.4821 38.4269V38.5373C49.5668 38.9757 51.1742 39.9596 52.236 41.4988C53.2979 43.0347 53.8369 44.9701 53.8369 47.3081C53.8369 48.6232 53.5836 49.8669 53.1063 51.0326L53.1712 51.1008V51.1106H53.1647ZM46.3975 42.7035C45.3941 41.7878 43.9978 41.3429 42.1859 41.3429H31.6519V51.9808H42.2151C44.0141 51.9808 45.4331 51.5132 46.43 50.5683C47.4302 49.6299 47.9367 48.292 47.9367 46.5775C47.9205 44.8954 47.4302 43.5933 46.43 42.7035H46.3846H46.3975ZM44.933 35.8227C45.904 35.0076 46.3748 33.8321 46.3748 32.3027C46.3748 30.5946 45.9494 29.3737 45.0857 28.6788C44.2284 27.9839 42.988 27.6202 41.3643 27.6202H31.6194V37.0306H41.3643C42.7801 37.0339 43.9946 36.6182 44.933 35.8227Z" fill="url(#paint0_linear_62_259)"/>
<defs>
<linearGradient id="paint0_linear_62_259" x1="68.2254" y1="9.95235" x2="10.3894" y2="69.2025" gradientUnits="userSpaceOnUse">
<stop stop-color="#FF63D3"/>
<stop offset="0.260417" stop-color="#FF889A"/>
<stop offset="0.552083" stop-color="#FF9292"/>
<stop offset="0.776042" stop-color="#FFAD7E"/>
<stop offset="1" stop-color="#FFB578"/>
</linearGradient>
</defs>
</svg>
