<?xml version="1.0" encoding="utf-8"?>
<!-- Generator: Adobe Illustrator 26.0.0, SVG Export Plug-In . SVG Version: 6.00 Build 0)  -->
<svg version="1.1" id="Capa_1" xmlns="http://www.w3.org/2000/svg" xmlns:xlink="http://www.w3.org/1999/xlink" x="0px" y="0px"
	 viewBox="0 0 24 24" style="enable-background:new 0 0 24 24;" xml:space="preserve">
<style type="text/css">
	.st0{fill:#FFB578;}
</style>
<path class="st0" d="M12,7.4c-2.6,0-4.6,2.1-4.6,4.6s2.1,4.6,4.6,4.6s4.6-2.1,4.6-4.6S14.6,7.4,12,7.4z M12,15c-1.7,0-3-1.3-3-3
	c0-1.7,1.3-3,3-3c0,0,0,0,0,0c1.7,0,3,1.3,3,3C15,13.7,13.7,15,12,15z"/>
<circle class="st0" cx="16.8" cy="7.2" r="1.1"/>
<path class="st0" d="M20.5,6.1c-0.5-1.2-1.4-2.2-2.6-2.6c-0.7-0.3-1.4-0.4-2.2-0.4C14.8,3,14.4,3,12,3S9.2,3,8.3,3.1
	c-0.7,0-1.5,0.2-2.2,0.4C4.9,3.9,3.9,4.9,3.5,6.1C3.2,6.8,3.1,7.5,3.1,8.3C3,9.3,3,9.6,3,12c0,2.4,0,2.8,0.1,3.7
	c0,0.7,0.2,1.5,0.4,2.2c0.5,1.2,1.4,2.2,2.6,2.6C6.8,20.8,7.5,21,8.3,21c1,0,1.3,0.1,3.7,0.1s2.8,0,3.7-0.1c0.7,0,1.5-0.2,2.2-0.4
	c1.2-0.5,2.2-1.4,2.6-2.6c0.3-0.7,0.4-1.4,0.4-2.2c0-1,0.1-1.3,0.1-3.7s0-2.8-0.1-3.7C20.9,7.6,20.8,6.8,20.5,6.1z M19.3,15.6
	c0,0.6-0.1,1.1-0.3,1.7c-0.3,0.8-0.9,1.4-1.7,1.7c-0.5,0.2-1.1,0.3-1.7,0.3c-0.9,0-1.2,0.1-3.7,0.1c-2.4,0-2.7,0-3.7-0.1
	c-0.6,0-1.1-0.1-1.7-0.3c-0.8-0.3-1.4-0.9-1.7-1.7c-0.2-0.5-0.3-1.1-0.3-1.7c0-0.9-0.1-1.2-0.1-3.7c0-2.4,0-2.7,0.1-3.7
	c0-0.6,0.1-1.1,0.3-1.7C5.2,5.9,5.9,5.3,6.6,5c0.5-0.2,1.1-0.3,1.7-0.3c1,0,1.2-0.1,3.7-0.1s2.7,0,3.7,0.1c0.6,0,1.1,0.1,1.7,0.3
	c0.8,0.3,1.4,0.9,1.7,1.7c0.2,0.5,0.3,1.1,0.3,1.7c0,1,0.1,1.2,0.1,3.7C19.4,14.4,19.4,14.7,19.3,15.6L19.3,15.6L19.3,15.6z"/>
</svg>
