<svg width="78" height="79" viewBox="0 0 78 79" fill="none" xmlns="http://www.w3.org/2000/svg">
<path d="M70.1806 36.3812L42.1666 8.03615C41.3897 7.25348 40.3382 6.81409 39.242 6.81409C38.1458 6.81409 37.0942 7.25348 36.3174 8.03615L30.5131 13.9169L37.8896 21.3855C38.7599 21.0879 39.6952 21.043 40.5894 21.2561C41.4836 21.4691 42.3009 21.9315 42.9487 22.5907C43.5964 23.25 44.0487 24.0798 44.2541 24.986C44.4596 25.8922 44.41 26.8385 44.111 27.7176L51.2147 34.9167C52.2665 34.5432 53.4125 34.543 54.4643 34.9162C55.5161 35.2894 56.4112 36.0138 57.0022 36.9702C57.5932 37.9265 57.8451 39.058 57.7164 40.1785C57.5876 41.299 57.086 42.3418 56.2939 43.1354C54.372 45.0837 51.2693 45.0837 49.3441 43.1354C48.6603 42.4426 48.1932 41.5614 48.0009 40.6016C47.8086 39.6419 47.8997 38.6462 48.2629 37.7385L41.6083 31.0395V48.6946C42.0767 48.9252 42.5259 49.2434 42.9142 49.6363C43.8315 50.5713 44.3464 51.8354 44.3464 53.1531C44.3464 54.4707 43.8315 55.7348 42.9142 56.6698C42.4564 57.1338 41.9128 57.5019 41.3143 57.7531C40.7159 58.0043 40.0743 58.1335 39.4265 58.1335C38.7786 58.1335 38.1371 58.0043 37.5386 57.7531C36.9402 57.5019 36.3965 57.1338 35.9388 56.6698C35.482 56.2089 35.1196 55.6613 34.8724 55.0584C34.6251 54.4554 34.4978 53.8091 34.4978 53.1563C34.4978 52.5035 34.6251 51.8572 34.8724 51.2542C35.1196 50.6513 35.482 50.1037 35.9388 49.6428C36.4265 49.1557 36.9719 48.7855 37.5559 48.542V30.7148C36.956 30.4662 36.4107 30.0997 35.9515 29.6366C35.4924 29.1735 35.1285 28.6229 34.8808 28.0166C34.6332 27.4103 34.5067 26.7603 34.5088 26.1042C34.5108 25.4482 34.6413 24.799 34.8928 24.1943L27.6414 16.8199L8.43173 36.2448C6.82745 37.8814 6.82745 40.5311 8.43173 42.1677L36.4457 70.5127C36.829 70.9016 37.2843 71.2102 37.7856 71.4207C38.2869 71.6312 38.8244 71.7396 39.3671 71.7396C39.9099 71.7396 40.4473 71.6312 40.9486 71.4207C41.4499 71.2102 41.9052 70.9016 42.2885 70.5127L70.1709 42.2976C70.5571 41.9107 70.8638 41.4503 71.0734 40.943C71.283 40.4356 71.3914 39.8913 71.3923 39.3414C71.3932 38.7915 71.2866 38.2468 71.0786 37.7388C70.8707 37.2307 70.5655 36.7693 70.1806 36.3812Z" fill="url(#paint0_linear_62_247)"/>
<defs>
<linearGradient id="paint0_linear_62_247" x1="71.3998" y1="6.73857" x2="7.1237" y2="71.7132" gradientUnits="userSpaceOnUse">
<stop stop-color="#FF63D3"/>
<stop offset="0.260417" stop-color="#FF889A"/>
<stop offset="0.552083" stop-color="#FF9292"/>
<stop offset="0.776042" stop-color="#FFAD7E"/>
<stop offset="1" stop-color="#FFB578"/>
</linearGradient>
</defs>
</svg>
