<svg width="31" height="32" viewBox="0 0 31 32" fill="none" xmlns="http://www.w3.org/2000/svg">
<path d="M24.2995 7.38572L22.6721 8.65712L15.743 13.8063L8.81394 8.60626L7.18656 7.33487C6.80317 7.01771 6.33517 6.82 5.84052 6.76623C5.34587 6.71247 4.84631 6.805 4.40374 7.03238C3.96117 7.25976 3.59503 7.61198 3.35068 8.04541C3.10634 8.47885 2.99452 8.97445 3.0291 9.47081V24.2063C3.0291 24.6649 3.21127 25.1047 3.53554 25.4289C3.8598 25.7532 4.29961 25.9354 4.75819 25.9354H8.81394V16.1202L15.743 21.3202L22.6721 16.1202V25.9354H26.7279C27.1865 25.9354 27.6263 25.7532 27.9506 25.4289C28.2748 25.1047 28.457 24.6649 28.457 24.2063V9.47081C28.4809 8.97873 28.3613 8.49031 28.1128 8.06493C27.8642 7.63954 27.4975 7.29551 27.0571 7.07465C26.6168 6.85379 26.1217 6.76561 25.6322 6.82083C25.1426 6.87606 24.6796 7.07231 24.2995 7.38572Z" fill="url(#paint0_linear_62_228)"/>
<defs>
<linearGradient id="paint0_linear_62_228" x1="28.6066" y1="6.49046" x2="2.87953" y2="26.2345" gradientUnits="userSpaceOnUse">
<stop stop-color="#FF63D3"/>
<stop offset="0.21865" stop-color="#FF889A"/>
<stop offset="0.473958" stop-color="#FF9292"/>
<stop offset="0.75" stop-color="#FFB578"/>
<stop offset="1" stop-color="#FFAD7E"/>
</linearGradient>
</defs>
</svg>
