<?xml version="1.0" encoding="utf-8"?>
<!-- Generator: Adobe Illustrator 26.0.0, SVG Export Plug-In . SVG Version: 6.00 Build 0)  -->
<svg version="1.1" id="Capa_1" xmlns="http://www.w3.org/2000/svg" xmlns:xlink="http://www.w3.org/1999/xlink" x="0px" y="0px"
	 viewBox="0 0 20 20" style="enable-background:new 0 0 20 20;" xml:space="preserve">
<style type="text/css">
	.st0{fill:#F1F1F1;}
</style>
<g>
	<path class="st0" d="M9.8,10.3c0.4,0,0.8,0,1.2,0.1c0,0,0.1,0,0.1,0l0.1,0c0.1,0,0.2,0,0.2,0c0,0,0,0,0,0c0,0,0,0,0,0
		c1,0.2,1.7,0.9,1.7,1.6c0,0.7-0.8,1.3-1.8,1.4c0,0,0,0,0,0l-0.1,0c0,0,0,0,0,0l-0.1,0c-0.1,0-0.1,0-0.2,0c0,0-0.1,0-0.1,0
		c0,0,0,0,0,0c-2.3,0-3.9,0.1-4.8,0.4c0,0-0.1,0-0.1,0c-0.4,0.2-0.9,0.3-1.3,0.6c-0.1,0.1-0.2,0.2-0.4,0.2c0.1-1.1,0.4-2.1,1-2.8
		C6.2,10.7,7.7,10.3,9.8,10.3 M9.8,8.3c-3,0-4.8,0.8-5.9,2.1c-2.8,3.1-1,8.7-0.8,9.6c0,0,0,0,0,0.1c0,0,0,0,0,0c0,0,0,0,0,0
		c0,0,0-0.3,0.1-0.6c0-0.1,0.1-0.3,0.1-0.4c0.1-0.2,0.1-0.4,0.3-0.7c0,0.1,0,0.2,0,0.4c0,0.1,0,0.3,0.2,0.5c0.1,0.2,0.3,0.3,0.4,0.3
		c-0.1-0.3-0.2-1.3,0.3-2.3c0.4-0.7,0.9-1,1.2-1.2c0.3-0.2,0.6-0.3,0.9-0.4c0.4-0.1,1.4-0.3,4.2-0.3c0,0,0,0,0,0c0.1,0,0.2,0,0.3,0
		c0.1,0,0.1,0,0.2,0c0,0,0,0,0,0l0,0c0,0,0.1,0,0.1,0c0,0,0,0,0,0l0,0c2-0.1,3.6-1.5,3.7-3.2c0.1-1.8-1.3-3.4-3.3-3.7l0,0
		c0,0-0.1,0-0.1,0c-0.1,0-0.3,0-0.4,0c0,0-0.1,0-0.1,0C10.7,8.3,10.2,8.3,9.8,8.3L9.8,8.3z"/>
</g>
<g>
	<path class="st0" d="M15.9,2.4C17,2.4,18,3.1,18,3.9s-1,1.5-2.1,1.5H8.5c-0.1,0-0.2,0-0.3,0c-1.1,0-2.9,0.2-4.7,1.2
		C3.4,6.7,3.2,6.9,3,7C3,6,3.2,5.1,3.7,4.3c0.8-1.2,2.4-1.9,4.9-2c0,0,0.1,0,0.1,0H15.9 M15.9,0.4H8.5v0C-2.3,0.8,1.8,11.3,1.8,11.3
		c0.3-0.6,1.1-1.9,2.8-2.9c1.5-0.9,2.9-1,3.7-1c0.1,0,0.2,0,0.3,0c2.5,0,4.9,0,7.4,0c2.3,0,4.1-1.6,4.1-3.5C20,2,18.1,0.4,15.9,0.4
		L15.9,0.4z"/>
</g>
</svg>
