<svg width="29" height="31" viewBox="0 0 29 31" fill="none" xmlns="http://www.w3.org/2000/svg">
<path d="M14.3744 9.70251C12.9069 9.70251 11.4996 10.3098 10.4619 11.3907C9.42426 12.4715 8.84131 13.9376 8.84131 15.4662C8.84131 16.9948 9.42426 18.4608 10.4619 19.5417C11.4996 20.6226 12.9069 21.2298 14.3744 21.2298C15.8419 21.2298 17.2493 20.6226 18.2869 19.5417C19.3246 18.4608 19.9075 16.9948 19.9075 15.4662C19.9075 13.9376 19.3246 12.4715 18.2869 11.3907C17.2493 10.3098 15.8419 9.70251 14.3744 9.70251ZM14.3744 19.2093C13.4211 19.2093 12.5068 18.8148 11.8326 18.1126C11.1585 17.4104 10.7798 16.458 10.7798 15.4649C10.7798 14.4719 11.1585 13.5195 11.8326 12.8172C12.5068 12.115 13.4211 11.7205 14.3744 11.7205C15.3278 11.7205 16.2421 12.115 16.9162 12.8172C17.5903 13.5195 17.969 14.4719 17.969 15.4649C17.969 16.458 17.5903 17.4104 16.9162 18.1126C16.2421 18.8148 15.3278 19.2093 14.3744 19.2093Z" fill="url(#paint0_linear_62_219)"/>
<path d="M20.1264 10.8344C20.8388 10.8344 21.4163 10.2328 21.4163 9.49066C21.4163 8.74856 20.8388 8.14697 20.1264 8.14697C19.414 8.14697 18.8364 8.74856 18.8364 9.49066C18.8364 10.2328 19.414 10.8344 20.1264 10.8344Z" fill="url(#paint1_linear_62_219)"/>
<path d="M24.5861 8.12457C24.3091 7.37941 23.8858 6.70271 23.3432 6.13778C22.8007 5.57285 22.1509 5.13215 21.4354 4.84388C20.5982 4.5165 19.7137 4.33948 18.8197 4.32036C17.6673 4.26801 17.3024 4.25305 14.3803 4.25305C11.4581 4.25305 11.0836 4.25305 9.94084 4.32036C9.04744 4.33851 8.16359 4.51556 7.32745 4.84388C6.6118 5.13181 5.96184 5.5724 5.41926 6.13737C4.87669 6.70234 4.45348 7.37922 4.17679 8.12457C3.86244 8.99662 3.6929 9.91803 3.67541 10.8493C3.62395 12.0484 3.6084 12.4286 3.6084 15.4737C3.6084 18.5176 3.6084 18.9053 3.67541 20.0981C3.69336 21.0305 3.86208 21.9504 4.17679 22.8241C4.45425 23.5692 4.87787 24.2458 5.42058 24.8107C5.96329 25.3756 6.61315 25.8164 7.32865 26.1048C8.1632 26.4454 9.04742 26.6351 9.94323 26.6657C11.0956 26.7181 11.4605 26.7343 14.3826 26.7343C17.3048 26.7343 17.6793 26.7343 18.8221 26.6657C19.716 26.6468 20.6005 26.4702 21.4378 26.1435C22.1531 25.8545 22.8027 25.4134 23.3452 24.8484C23.8877 24.2833 24.3111 23.6066 24.5885 22.8615C24.9032 21.989 25.0719 21.0691 25.0899 20.1368C25.1413 18.9377 25.1569 18.5575 25.1569 15.5124C25.1569 12.4673 25.1569 12.0809 25.0899 10.888C25.076 9.94351 24.9055 9.00863 24.5861 8.12457ZM23.1286 20.0059C23.1209 20.7242 22.9951 21.4359 22.7565 22.1099C22.5768 22.5946 22.3017 23.0348 21.9489 23.4021C21.5961 23.7694 21.1733 24.0557 20.7079 24.2426C20.068 24.49 19.3921 24.6211 18.7096 24.6303C17.5728 24.6851 17.2521 24.6988 14.3372 24.6988C11.4198 24.6988 11.1219 24.6988 9.96358 24.6303C9.28142 24.6216 8.60582 24.4904 7.96644 24.2426C7.49939 24.0569 7.07497 23.7711 6.72064 23.4037C6.36631 23.0363 6.08996 22.5956 5.90947 22.1099C5.67428 21.4431 5.54847 20.7398 5.53733 20.0296C5.48587 18.8454 5.47391 18.5114 5.47391 15.475C5.47391 12.4373 5.47391 12.127 5.53733 10.9191C5.54506 10.2012 5.67094 9.48998 5.90947 8.81636C6.27444 7.8329 7.02232 7.05885 7.96644 6.68241C8.60613 6.43579 9.28154 6.30469 9.96358 6.29476C11.1015 6.24116 11.421 6.22621 14.3372 6.22621C17.2533 6.22621 17.5525 6.22621 18.7096 6.29476C19.3921 6.30332 20.0682 6.43445 20.7079 6.68241C21.1733 6.86972 21.596 7.15632 21.9488 7.52381C22.3015 7.89131 22.5767 8.33158 22.7565 8.81636C22.9917 9.48316 23.1175 10.1864 23.1286 10.8967C23.1801 12.0821 23.1933 12.4149 23.1933 15.4525C23.1933 18.4889 23.1933 18.8155 23.1418 20.0071H23.1286V20.0059Z" fill="url(#paint2_linear_62_219)"/>
<defs>
<linearGradient id="paint0_linear_62_219" x1="19.9713" y1="9.54576" x2="6.38231" y2="17.0963" gradientUnits="userSpaceOnUse">
<stop stop-color="#FF63D3"/>
<stop offset="0.21865" stop-color="#FF889A"/>
<stop offset="0.473958" stop-color="#FF9292"/>
<stop offset="0.75" stop-color="#FFB578"/>
<stop offset="1" stop-color="#FFAD7E"/>
</linearGradient>
<linearGradient id="paint1_linear_62_219" x1="21.4312" y1="8.11043" x2="18.2632" y2="9.8707" gradientUnits="userSpaceOnUse">
<stop stop-color="#FF63D3"/>
<stop offset="0.21865" stop-color="#FF889A"/>
<stop offset="0.473958" stop-color="#FF9292"/>
<stop offset="0.75" stop-color="#FFB578"/>
<stop offset="1" stop-color="#FFAD7E"/>
</linearGradient>
<linearGradient id="paint2_linear_62_219" x1="25.2811" y1="3.94733" x2="-1.19922" y2="18.6379" gradientUnits="userSpaceOnUse">
<stop stop-color="#FF63D3"/>
<stop offset="0.21865" stop-color="#FF889A"/>
<stop offset="0.473958" stop-color="#FF9292"/>
<stop offset="0.75" stop-color="#FFB578"/>
<stop offset="1" stop-color="#FFAD7E"/>
</linearGradient>
</defs>
</svg>
