<svg width="30" height="31" viewBox="0 0 30 31" fill="none" xmlns="http://www.w3.org/2000/svg">
<path d="M24.3277 4.24683H5.18196C4.8646 4.24683 4.56024 4.37815 4.33583 4.61191C4.11142 4.84566 3.98535 5.16271 3.98535 5.49329V25.4367C3.98535 25.7673 4.11142 26.0844 4.33583 26.3181C4.56024 26.5519 4.8646 26.6832 5.18196 26.6832H24.3277C24.645 26.6832 24.9494 26.5519 25.1738 26.3181C25.3982 26.0844 25.5243 25.7673 25.5243 25.4367V5.49329C25.5243 5.16271 25.3982 4.84566 25.1738 4.61191C24.9494 4.37815 24.645 4.24683 24.3277 4.24683ZM10.374 23.3639H7.1767V12.6567H10.374V23.3639ZM8.77537 11.1946C8.28409 11.1946 7.81294 10.9913 7.46556 10.6295C7.11818 10.2676 6.92302 9.77684 6.92302 9.2651C6.92302 8.75335 7.11818 8.26257 7.46556 7.90071C7.81294 7.53886 8.28409 7.33557 8.77537 7.33557C9.26664 7.33557 9.73779 7.53886 10.0852 7.90071C10.4326 8.26257 10.6277 8.75335 10.6277 9.2651C10.6277 9.77684 10.4326 10.2676 10.0852 10.6295C9.73779 10.9913 9.26664 11.1946 8.77537 11.1946ZM22.3389 23.3639H19.1452V18.1574C19.1452 16.9159 19.1236 15.3192 17.4843 15.3192C15.821 15.3192 15.5685 16.6728 15.5685 18.0701V23.3651H12.3772V12.658H15.4405V14.1213H15.4847C15.9095 13.28 16.953 12.3925 18.505 12.3925C21.7406 12.3925 22.3377 14.6087 22.3377 17.493V23.3639H22.3389Z" fill="url(#paint0_linear_62_226)"/>
<defs>
<linearGradient id="paint0_linear_62_226" x1="25.6484" y1="3.94172" x2="-0.800764" y2="18.6378" gradientUnits="userSpaceOnUse">
<stop stop-color="#FF63D3"/>
<stop offset="0.21865" stop-color="#FF889A"/>
<stop offset="0.473958" stop-color="#FF9292"/>
<stop offset="0.75" stop-color="#FFB578"/>
<stop offset="1" stop-color="#FFAD7E"/>
</linearGradient>
</defs>
</svg>
