<svg width="80" height="80" viewBox="0 0 80 80" fill="none" xmlns="http://www.w3.org/2000/svg">
<path d="M45.4763 14.4548C42.7162 11.1689 40.3175 7.88305 39.8575 7.16016H39.7589C39.2989 7.85019 36.9002 11.1689 34.14 14.4548C10.4817 44.652 37.8859 65.0245 37.8859 65.0245L38.1159 65.1888C38.3131 68.3104 38.8388 72.8449 38.8388 72.8449H40.8761C40.8761 72.8449 41.369 68.3432 41.5661 65.1888L41.7961 64.9916C41.7961 64.9916 69.1346 44.652 45.4763 14.4548ZM39.7589 64.5645C39.183 64.0914 38.6547 63.5631 38.1817 62.9873L39.7589 30.1285L41.2375 62.9873C40.7942 63.5574 40.2993 64.0854 39.7589 64.5645Z" fill="url(#paint0_linear_62_239)"/>
<defs>
<linearGradient id="paint0_linear_62_239" x1="55.0483" y1="6.99316" x2="23.6648" y2="73.7837" gradientUnits="userSpaceOnUse">
<stop stop-color="#FF63D3"/>
<stop offset="0.260417" stop-color="#FF889A"/>
<stop offset="0.552083" stop-color="#FF9292"/>
<stop offset="0.776042" stop-color="#FFAD7E"/>
<stop offset="1" stop-color="#FFB578"/>
</linearGradient>
</defs>
</svg>
