<svg width="80" height="81" viewBox="0 0 80 81" fill="none" xmlns="http://www.w3.org/2000/svg">
<path d="M40.2421 74.0232C39.3384 74.0232 38.494 73.7772 37.7054 73.3517L29.6911 68.5378C28.4918 67.8629 29.0931 67.6169 29.4545 67.4939C31.0843 66.9453 31.3866 66.8256 33.0723 65.8549C33.2563 65.7318 33.4962 65.7884 33.6802 65.9114L39.8248 69.6349C40.0679 69.7545 40.3702 69.7545 40.5509 69.6349L64.6003 55.5488C64.8435 55.4291 64.9617 55.1831 64.9617 54.8772V26.7583C64.9617 26.4558 64.8435 26.2097 64.6003 26.0901L40.5509 12.0638C40.3111 11.9408 40.0088 11.9408 39.8248 12.0638L15.7688 26.0867C15.529 26.2064 15.4074 26.5156 15.4074 26.755V54.8706C15.4074 55.1133 15.529 55.4225 15.7688 55.5421L22.3406 59.3886C25.8959 61.2105 28.1303 59.0728 28.1303 56.9451V29.1985C28.1303 28.8328 28.4293 28.4638 28.8532 28.4638H31.9288C32.2837 28.4638 32.6517 28.7696 32.6517 29.1985V56.9484C32.6517 61.7657 30.0624 64.5749 25.541 64.5749C24.1544 64.5749 23.0701 64.5749 19.9945 63.0456L13.6692 59.392C12.8985 58.9387 12.2589 58.2887 11.8143 57.5069C11.3697 56.7251 11.1358 55.839 11.1357 54.9371V26.8181C11.1357 24.9896 12.0985 23.2808 13.6692 22.3666L37.7087 8.28052C38.489 7.85826 39.3604 7.63733 40.2454 7.63733C41.1303 7.63733 42.0017 7.85826 42.7821 8.28052L66.8248 22.3666C68.3988 23.2775 69.3582 24.9896 69.3582 26.8181V54.9371C69.3582 56.7622 68.3955 58.4711 66.8248 59.392L42.7821 73.4747C41.9902 73.8404 41.0865 74.0232 40.2421 74.0232ZM47.655 54.6877C37.1073 54.6877 34.9387 49.8073 34.9387 45.6649C34.9387 45.2992 35.241 44.9302 35.6616 44.9302H38.7963C39.1577 44.9302 39.4567 45.1729 39.4567 45.5419C39.9398 48.7701 41.3231 50.3592 47.7174 50.3592C52.7777 50.3592 54.9529 49.1956 54.9529 46.4529C54.9529 44.8671 54.3451 43.7101 46.4524 42.9189C39.8839 42.254 35.7864 40.7812 35.7864 35.4786C35.7864 30.5416 39.8839 27.6127 46.758 27.6127C54.4699 27.6127 58.2684 30.3023 58.7481 36.1501C58.7424 36.3475 58.6783 36.5385 58.5641 36.6987C58.4426 36.8184 58.2651 36.9414 58.0844 36.9414H54.9529C54.7982 36.938 54.6489 36.8826 54.5287 36.7839C54.4085 36.6852 54.3242 36.5487 54.2892 36.3961C53.563 33.0317 51.6966 31.9413 46.758 31.9413C41.2081 31.9413 40.5444 33.8928 40.5444 35.3556C40.5444 37.1209 41.3231 37.6694 48.8051 38.6468C56.218 39.6209 59.7142 41.0239 59.7142 46.2733C59.6485 51.6425 55.3144 54.6877 47.655 54.6877Z" fill="url(#paint0_linear_62_241)"/>
<defs>
<linearGradient id="paint0_linear_62_241" x1="69.2115" y1="7.4467" x2="10.5063" y2="73.528" gradientUnits="userSpaceOnUse">
<stop stop-color="#FF63D3"/>
<stop offset="0.260417" stop-color="#FF889A"/>
<stop offset="0.552083" stop-color="#FF9292"/>
<stop offset="0.776042" stop-color="#FFAD7E"/>
<stop offset="1" stop-color="#FFB578"/>
</linearGradient>
</defs>
</svg>
