<svg width="79" height="78" viewBox="0 0 79 78" fill="none" xmlns="http://www.w3.org/2000/svg">
<path fill-rule="evenodd" clip-rule="evenodd" d="M24.39 36.3785C23.1406 33.7334 22.072 31.0086 21.1915 28.2223C13.9534 30.2373 9.50796 33.3111 9.50796 36.3785C9.50796 39.4394 13.9502 42.5165 21.1915 44.5282C22.078 41.7432 23.1495 39.0191 24.39 36.3785ZM25.9446 39.5146C26.5417 40.6608 27.1656 41.7933 27.8158 42.9112C28.469 44.0228 29.1483 45.1191 29.8532 46.1991C27.7525 45.9455 25.7398 45.6062 23.8339 45.1849C24.4431 43.2625 25.1482 41.3704 25.9446 39.5146ZM31.8367 49.1035L31.8391 49.1069L31.8416 49.1071C33.5449 51.4923 35.4021 53.7664 37.4016 55.9155C32.0956 61.0075 27.0754 63.3337 24.3965 61.8256C21.7078 60.2919 21.2337 54.9529 23.0846 47.7593C25.9689 48.3971 28.8926 48.8461 31.8367 49.1035ZM35.3686 49.3495C36.6906 49.4126 38.0025 49.4438 39.2947 49.4438C40.5818 49.4438 41.8905 49.4117 43.2085 49.3493C41.9769 50.9564 40.6686 52.505 39.2879 53.9898C37.9064 52.505 36.5982 50.9561 35.3686 49.3495ZM46.7335 49.1104L46.7374 49.1101L46.7444 49.1001C49.6916 48.8466 52.6128 48.3911 55.5016 47.7561C57.359 54.9497 56.8817 60.2887 54.1898 61.8224C53.6507 62.1272 53.0078 62.2876 52.2771 62.2876C49.4131 62.2876 45.4158 59.9807 41.1879 55.9154C43.1868 53.7709 45.0395 51.4976 46.7335 49.1104ZM48.7262 46.2041C50.1409 44.039 51.4481 41.8072 52.6431 39.5166C53.4374 41.3691 54.1414 43.2584 54.7528 45.178C52.7616 45.6159 50.7504 45.9583 48.7262 46.2041ZM51.1958 36.3785C49.4724 39.9088 47.4839 43.3065 45.2469 46.5433C41.2398 46.8417 37.3496 46.8417 33.3393 46.5433C31.1059 43.3043 29.1175 39.9068 27.3904 36.3785C29.1058 32.8441 31.0947 29.4458 33.3393 26.2138C37.3026 25.9122 41.2836 25.9122 45.2469 26.2138C47.4897 29.4469 49.4785 32.8451 51.1958 36.3785ZM54.1921 36.3836L54.193 36.3817L54.1906 36.3767C55.439 33.7311 56.5094 31.0071 57.3948 28.2223C64.6393 30.2405 69.0815 33.3111 69.0815 36.3785C69.0815 39.4394 64.6361 42.5165 57.3948 44.5282C56.5705 41.8924 55.49 39.1604 54.1921 36.3836ZM52.6407 33.2424C51.4413 30.9476 50.131 28.711 48.7144 26.5404C50.7425 26.7875 52.7577 27.1317 54.7526 27.5717C54.14 29.4946 53.436 31.3877 52.6407 33.2424ZM43.2161 23.4041C41.9859 21.7985 40.678 20.2522 39.2969 18.7705C37.9171 20.2526 36.6099 21.7987 35.3797 23.4035C37.9904 23.2798 40.6055 23.28 43.2161 23.4041ZM29.8618 26.5457C27.8375 26.7933 25.826 27.1367 23.8344 27.5748C24.445 29.4957 25.1489 31.3862 25.9437 33.2396C26.5406 32.0932 27.1643 30.9605 27.8158 29.8427C28.4655 28.74 29.1498 27.6373 29.8618 26.5457ZM6.79004 36.3785C6.79004 40.8131 11.7485 44.6916 20.4531 47.1047C18.2172 55.746 19.1394 61.9203 23.0456 64.139C24.0401 64.6951 25.1665 64.9797 26.3091 64.9636C29.9182 64.9636 34.4969 62.4417 39.2888 57.8282C44.0833 62.439 48.6621 64.9636 52.2771 64.9636C53.4198 64.9805 54.5464 64.6958 55.5406 64.139C59.4406 61.9204 60.3595 55.7434 58.132 47.105C66.8373 44.6923 71.7962 40.8163 71.7962 36.3785C71.7962 31.9376 66.8402 28.0615 58.1324 25.6487C60.3689 17.0065 59.4442 10.8368 55.5406 8.6148C51.717 6.43411 45.6897 8.78581 39.2931 14.9227C32.8933 8.78271 26.8631 6.43098 23.0456 8.61478C19.1385 10.8339 18.2168 17.0047 20.4574 25.6512C11.7529 28.0639 6.79004 31.9402 6.79004 36.3785ZM24.3965 10.9346C24.9388 10.6266 25.5817 10.4693 26.3091 10.4693C29.1764 10.4693 33.1705 12.7731 37.4016 16.8383C35.4004 18.9877 33.5423 21.2631 31.8391 23.6501C28.8971 23.9036 25.9779 24.356 23.0846 24.9881C21.2337 17.7945 21.7078 12.4651 24.3965 10.9346ZM39.2947 42.1186C42.4959 42.1186 45.091 39.5544 45.091 36.3913C45.091 33.2282 42.4959 30.664 39.2947 30.664C36.0935 30.664 33.4984 33.2282 33.4984 36.3913C33.4984 39.5544 36.0935 42.1186 39.2947 42.1186ZM46.7406 23.6501C49.8385 23.9229 52.774 24.3817 55.5016 24.9881C57.3558 17.7945 56.8817 12.4651 54.1897 10.9314C51.514 9.4009 46.4776 11.7432 41.1879 16.8384C43.1882 18.9881 45.0456 21.2598 46.7406 23.6501Z" fill="url(#paint0_linear_62_249)"/>
<defs>
<linearGradient id="paint0_linear_62_249" x1="69.7374" y1="8.24977" x2="12.566" y2="65.4947" gradientUnits="userSpaceOnUse">
<stop stop-color="#FF63D3"/>
<stop offset="0.260417" stop-color="#FF889A"/>
<stop offset="0.552083" stop-color="#FF9292"/>
<stop offset="0.776042" stop-color="#FFAD7E"/>
<stop offset="1" stop-color="#FFB578"/>
</linearGradient>
</defs>
</svg>
