<svg width="79" height="81" viewBox="0 0 79 81" fill="none" xmlns="http://www.w3.org/2000/svg">
<path fill-rule="evenodd" clip-rule="evenodd" d="M30.0268 57.8492C27.6758 57.8492 25.7178 55.8811 25.6431 53.5206C25.5684 52.6529 25.799 51.7487 26.1821 51.2367C21.7984 43.3642 19.4506 33.5269 23.0291 23.2973C25.6431 15.6176 32.1375 10.3848 39.171 10.3848C46.6688 10.3848 54.5076 17.1535 55.3941 30.0594L51.5494 28.8825C51.2832 24.6736 47.8216 14.0817 39.5217 14.2412C36.5602 14.321 32.2155 15.7772 29.9099 18.7294C27.1401 22.1935 25.6041 26.3658 25.2989 31.1698C24.7956 37.5363 26.1432 43.444 29.3319 48.9527C29.5268 48.8796 29.7541 48.8796 29.9099 48.8796H30.0658C32.4103 48.8796 34.4106 50.8444 34.4106 53.2048C34.438 53.7957 34.3497 54.3863 34.1508 54.9418C33.952 55.4972 33.6465 56.0063 33.2526 56.4391C32.8586 56.8719 32.384 57.2196 31.8568 57.4618C31.3296 57.7039 30.7604 57.8357 30.1827 57.8492H30.0268ZM65.3891 42.2637C59.4337 35.1027 50.6694 31.1698 40.6745 31.1698H39.3658C38.7164 29.7136 37.2194 28.806 35.5244 28.806H35.4075C32.9915 28.806 31.1049 30.9337 31.1828 33.4105C31.2575 35.7709 33.2188 37.739 35.5666 37.739H35.7582C36.5892 37.7069 37.3935 37.4301 38.0748 36.9419C38.7562 36.4536 39.2855 35.7747 39.5996 34.9863H41.0252C46.9481 34.9863 52.556 36.755 57.6704 40.2191C61.5866 42.8522 64.3987 46.3163 65.9736 50.4487C67.3536 53.8365 67.2789 57.141 65.8599 59.9004C63.668 64.229 59.9759 66.5096 55.0986 66.5096C52.0235 66.5096 49.0231 65.5255 47.4839 64.8174C46.5649 65.5987 45.0225 66.8986 43.9054 67.6865C47.289 69.259 50.7116 70.1666 54.014 70.1666C61.5119 70.1666 67.0776 65.838 69.1981 61.6657C71.5003 56.9382 71.312 48.9893 65.428 42.1873L65.3891 42.2637ZM51.6663 52.1044C52.7651 51.9946 53.7796 51.4534 54.4971 50.5942C55.2145 49.7351 55.5791 48.6249 55.5142 47.4966C55.4636 46.3377 54.9807 45.2429 54.1652 44.4376C53.3496 43.6323 52.2635 43.1779 51.1305 43.168H50.9746C49.8123 43.2105 48.714 43.7234 47.9207 44.5942C47.1274 45.4649 46.704 46.6224 46.7435 47.8124C46.8214 49.0724 47.3247 50.0964 48.0132 50.8411C45.3277 56.1902 41.2914 60.1298 35.1736 63.4344C31.0627 65.6386 26.7179 66.4664 22.4932 65.8746C18.957 65.366 16.1936 63.7469 14.4953 61.1505C11.9625 57.2109 11.7287 52.9654 13.8426 48.7167C15.1319 46.1819 16.9742 43.9852 19.2265 42.297C18.7631 40.9788 18.4037 39.6247 18.1517 38.2477C6.76695 46.5923 7.92945 58.0021 11.3845 63.3945C13.9628 67.3308 19.2265 69.8474 24.9904 69.8474C26.5295 69.8474 28.1467 69.7311 29.7216 69.3355C39.7133 67.3673 47.2858 61.2302 51.6306 52.1808L51.6663 52.1044Z" fill="url(#paint0_linear_62_234)"/>
<defs>
<linearGradient id="paint0_linear_62_234" x1="70.7925" y1="10.1812" x2="7.38311" y2="68.9399" gradientUnits="userSpaceOnUse">
<stop stop-color="#FF63D3"/>
<stop offset="0.260417" stop-color="#FF889A"/>
<stop offset="0.552083" stop-color="#FF9292"/>
<stop offset="0.776042" stop-color="#FFAD7E"/>
<stop offset="1" stop-color="#FFB578"/>
</linearGradient>
</defs>
</svg>
