<svg width="94" height="51" viewBox="0 0 94 51" fill="none" xmlns="http://www.w3.org/2000/svg">
<path d="M69.4511 33.286C67.69 33.8607 65.7964 34.0373 63.9568 34.3596C63.4561 34.4472 62.9281 34.3691 62.4223 34.4391C58.4983 34.9836 57.0156 36.5553 56.4613 40.7337C56.1665 42.9579 55.5811 45.0719 54.3046 46.9643C52.1479 50.1607 47.9583 51.6113 44.3725 50.3625C40.5343 49.0258 38.2094 45.5273 38.5196 41.5551C38.7987 37.9763 41.6254 34.8146 45.5954 33.8958C47.4539 33.4655 49.3826 33.2973 51.2896 33.1236C54.8494 32.7999 56.4219 31.2391 57.0149 27.7388C57.3561 25.7248 57.0521 23.8246 56.6055 21.9249C55.9234 19.0212 53.8091 17.6721 50.2595 17.4137C48.3225 17.2725 46.3519 16.9915 44.4984 16.4346C40.5967 15.2614 38.3251 11.8742 38.505 7.90055C38.6626 4.42102 41.4962 1.03308 44.8999 0.255067C48.9322 -0.667091 52.9467 0.945499 54.6615 4.5367C55.5614 6.42115 56.0559 8.55595 56.408 10.6327C57.039 14.3564 58.5184 15.8011 62.2326 16.2047C64.6345 16.466 67.082 16.7638 69.3726 17.4805C72.851 18.569 74.9406 21.8106 74.9399 25.4131C74.9395 28.9372 72.7828 32.1989 69.4511 33.286Z" fill="url(#paint0_linear_206_3)"/>
<path d="M28.4901 33.858C23.8271 33.8587 20.0203 30.053 20.0195 25.3907C20.0188 20.7281 23.8246 16.9209 28.4868 16.9202C33.1494 16.9194 36.9563 20.7252 36.957 25.3874C36.9577 30.0501 33.152 33.8573 28.4901 33.858Z" fill="url(#paint1_linear_206_3)"/>
<path d="M8.44067 50.7971C3.78171 50.7855 -0.0116506 46.9665 2.68889e-05 42.2999C0.0117044 37.641 3.83025 33.8476 8.49687 33.8596C13.1558 33.871 16.9492 37.6899 16.9375 42.3565C16.9258 47.0154 13.1073 50.8088 8.44067 50.7971Z" fill="url(#paint2_linear_206_3)"/>
<path d="M85.013 50.7972C80.342 50.8239 76.507 47.0458 76.4804 42.392C76.4537 37.7214 80.2318 33.886 84.8856 33.8598C89.5562 33.8328 93.3912 37.6104 93.4182 42.2646C93.4449 46.9353 89.6668 50.7706 85.013 50.7972Z" fill="url(#paint3_linear_206_3)"/>
<defs>
<linearGradient id="paint0_linear_206_3" x1="74.5133" y1="0.364925" x2="29.5381" y2="9.52896" gradientUnits="userSpaceOnUse">
<stop stop-color="#FF63D3"/>
<stop offset="0.234375" stop-color="#FF889A"/>
<stop offset="0.458333" stop-color="#FF9292"/>
<stop offset="0.661458" stop-color="#FFAD7E"/>
<stop offset="1" stop-color="#FFB578"/>
</linearGradient>
<linearGradient id="paint1_linear_206_3" x1="36.7588" y1="17.0418" x2="16.6159" y2="22.763" gradientUnits="userSpaceOnUse">
<stop stop-color="#FF63D3"/>
<stop offset="0.234375" stop-color="#FF889A"/>
<stop offset="0.458333" stop-color="#FF9292"/>
<stop offset="0.661458" stop-color="#FFAD7E"/>
<stop offset="1" stop-color="#FFB578"/>
</linearGradient>
<linearGradient id="paint2_linear_206_3" x1="16.7393" y1="33.9813" x2="-3.40353" y2="39.7026" gradientUnits="userSpaceOnUse">
<stop stop-color="#FF63D3"/>
<stop offset="0.234375" stop-color="#FF889A"/>
<stop offset="0.458333" stop-color="#FF9292"/>
<stop offset="0.661458" stop-color="#FFAD7E"/>
<stop offset="1" stop-color="#FFB578"/>
</linearGradient>
<linearGradient id="paint3_linear_206_3" x1="93.2201" y1="33.9813" x2="73.0766" y2="39.7029" gradientUnits="userSpaceOnUse">
<stop stop-color="#FF63D3"/>
<stop offset="0.234375" stop-color="#FF889A"/>
<stop offset="0.458333" stop-color="#FF9292"/>
<stop offset="0.661458" stop-color="#FFAD7E"/>
<stop offset="1" stop-color="#FFB578"/>
</linearGradient>
</defs>
</svg>
