<svg width="80" height="79" viewBox="0 0 80 79" fill="none" xmlns="http://www.w3.org/2000/svg">
<path d="M39.7587 6.57727C57.9033 6.57727 72.6175 21.2914 72.6175 39.4361C72.6175 57.5807 57.9033 72.2949 39.7587 72.2949C21.6141 72.2949 6.8999 57.5807 6.8999 39.4361C6.8999 21.2914 21.6141 6.57727 39.7587 6.57727ZM33.2297 50.3846C33.7094 52.1491 33.6568 53.7987 33.1607 55.2904L32.9832 55.7833C32.5681 56.7769 31.982 57.6899 31.2516 58.481C29.3392 60.561 26.671 61.3463 25.5276 60.6859C24.2954 59.9662 24.9098 57.032 27.1278 54.6891C29.5133 52.1754 32.9306 50.5555 32.9306 50.5555V50.5489L33.2297 50.3846ZM60.3645 20.6441C58.8792 14.8051 49.2023 12.8829 40.0413 16.1392C34.5999 18.0746 28.6951 21.1173 24.4564 25.0866C19.4092 29.7986 18.6075 33.9059 18.9361 35.6212C20.1026 41.677 28.4027 45.6365 31.8167 48.5741V48.5905C30.808 49.0801 23.4443 52.7767 21.7225 56.6015C19.8726 60.6267 22.0117 63.5051 23.4082 63.8699C27.7225 65.0626 32.1552 62.8841 34.5407 59.3551C36.8376 55.9016 36.6371 51.469 35.6481 49.2904C37.0051 48.9224 38.6021 48.7581 40.6557 49.0078C46.4093 49.6617 47.5594 53.2795 47.3064 54.7581C47.0632 56.2335 45.8737 57.0944 45.463 57.3408C45.049 57.5906 44.9274 57.6727 44.9668 57.837C45.0095 58.0802 45.2165 58.0802 45.5419 58.044C45.9953 57.9619 48.5451 56.8118 48.6667 54.0122C48.7883 50.4832 45.4203 46.5434 39.4235 46.619C36.9591 46.665 35.3951 46.8687 34.2877 47.3222C34.213 47.2063 34.1144 47.1077 33.9986 47.033C30.3019 43.0473 23.441 40.2543 23.7302 34.9574C23.8123 33.0253 24.5089 27.9355 36.8737 21.7745C47.0205 16.7208 55.1136 18.1206 56.5134 21.1994C58.5178 25.5894 52.1958 33.7679 41.6415 34.9574C37.6163 35.4109 35.5232 33.8501 34.9843 33.2718C34.4126 32.654 34.3337 32.6146 34.1267 32.7427C33.7948 32.907 34.0018 33.4393 34.1267 33.7712C34.4553 34.5894 35.7269 36.0319 37.9482 36.7679C39.877 37.3857 44.5988 37.7504 50.2702 35.5357C56.635 33.0746 61.6032 26.2104 60.1673 20.4601L60.3645 20.6441Z" fill="url(#paint0_linear_62_243)"/>
<defs>
<linearGradient id="paint0_linear_62_243" x1="72.7516" y1="6.44309" x2="6.76577" y2="72.4289" gradientUnits="userSpaceOnUse">
<stop stop-color="#FF63D3"/>
<stop offset="0.260417" stop-color="#FF889A"/>
<stop offset="0.552083" stop-color="#FF9292"/>
<stop offset="0.776042" stop-color="#FFAD7E"/>
<stop offset="1" stop-color="#FFB578"/>
</linearGradient>
</defs>
</svg>
