<?xml version="1.0" encoding="utf-8"?>
<!-- Generator: Adobe Illustrator 26.0.0, SVG Export Plug-In . SVG Version: 6.00 Build 0)  -->
<svg version="1.1" id="Capa_1" xmlns="http://www.w3.org/2000/svg" xmlns:xlink="http://www.w3.org/1999/xlink" x="0px" y="0px"
	 viewBox="0 0 24 24" style="enable-background:new 0 0 24 24;" xml:space="preserve">
<style type="text/css">
	.st0{fill:#F1F1F1;}
</style>
<path class="st0" d="M15.7,12.7c2.6-2,3.1-5.8,1-8.4s-5.8-3.1-8.4-1s-3.1,5.8-1,8.4c0.3,0.4,0.6,0.7,1,1c-3.4,1.4-5.8,4.5-6.2,8.2
	C2,21.4,2.4,21.9,3,22c0.6,0.1,1-0.3,1.1-0.9c0.5-4.4,4.5-7.6,8.8-7.1c3.7,0.4,6.6,3.3,7.1,7.1c0.1,0.5,0.5,0.9,1,0.9h0.1
	c0.5-0.1,0.9-0.6,0.9-1.1C21.6,17.2,19.1,14.1,15.7,12.7z M12,12c-2.2,0-4-1.8-4-4s1.8-4,4-4s4,1.8,4,4S14.2,12,12,12z"/>
</svg>
