<?xml version="1.0" encoding="utf-8"?>
<!-- Generator: Adobe Illustrator 26.0.0, SVG Export Plug-In . SVG Version: 6.00 Build 0)  -->
<svg version="1.1" id="Capa_1" xmlns="http://www.w3.org/2000/svg" xmlns:xlink="http://www.w3.org/1999/xlink" x="0px" y="0px"
	 viewBox="0 0 24 24" style="enable-background:new 0 0 24 24;" xml:space="preserve">
<style type="text/css">
	.st0{fill:#F1F1F1;}
</style>
<path class="st0" d="M17.7,11.3l-5-5c-0.1-0.1-0.2-0.2-0.3-0.2c-0.2-0.1-0.5-0.1-0.8,0c-0.1,0-0.2,0.1-0.3,0.2l-5,5
	c-0.4,0.4-0.4,1,0,1.4s1,0.4,1.4,0l0,0L11,9.4V17c0,0.6,0.4,1,1,1s1-0.4,1-1V9.4l3.3,3.3c0.4,0.4,1,0.4,1.4,0c0,0,0,0,0,0
	C18.1,12.3,18.1,11.7,17.7,11.3C17.7,11.3,17.7,11.3,17.7,11.3z"/>
</svg>
