<?xml version="1.0" encoding="utf-8"?>
<!-- Generator: Adobe Illustrator 26.0.0, SVG Export Plug-In . SVG Version: 6.00 Build 0)  -->
<svg version="1.1" id="Capa_1" xmlns="http://www.w3.org/2000/svg" xmlns:xlink="http://www.w3.org/1999/xlink" x="0px" y="0px"
	 viewBox="0 0 24 24" style="enable-background:new 0 0 24 24;" xml:space="preserve">
<style type="text/css">
	.st0{fill:#F1F1F1;}
</style>
<path class="st0" d="M12,2C6.5,2,2,6.5,2,12c0,5.5,4.5,10,10,10c1.8,0,3.5-0.5,5-1.3c0.5-0.3,0.7-0.9,0.4-1.3
	c-0.3-0.5-0.9-0.7-1.3-0.4c0,0,0,0-0.1,0c-3.8,2.2-8.7,0.9-10.9-2.9S4.2,7.3,8,5.1S16.7,4.2,18.9,8c0.7,1.2,1.1,2.6,1.1,4v0.8
	c0,1-0.8,1.8-1.8,1.8s-1.8-0.8-1.8-1.8V8.5c0-0.6-0.4-1-1-1c-0.5,0-0.9,0.3-1,0.8c-0.7-0.5-1.6-0.8-2.5-0.8c-2.5,0-4.5,2-4.6,4.4
	c0,2.5,2,4.5,4.4,4.6c1.3,0,2.5-0.5,3.4-1.5c1.3,1.6,3.6,1.9,5.2,0.7c0.9-0.7,1.4-1.8,1.5-2.9V12C22,6.5,17.5,2,12,2z M12,14.5
	c-1.4,0-2.5-1.1-2.5-2.5s1.1-2.5,2.5-2.5s2.5,1.1,2.5,2.5S13.4,14.5,12,14.5z"/>
</svg>
