<svg width="75" height="75" viewBox="0 0 75 75" fill="none" xmlns="http://www.w3.org/2000/svg">
<g clip-path="url(#clip0_62_245)">
<path d="M74.1113 58.0662C71.4453 58.7528 69.7961 58.0964 68.3165 55.8465L57.7942 41.1041L56.2733 39.063L43.985 55.8952C42.581 57.9201 41.1082 58.8015 38.4879 58.0848L54.2233 36.6949L39.5736 17.3739C42.0931 16.8775 43.8339 17.1303 45.3799 19.415L56.2939 34.3406L67.2881 19.4962C68.6967 17.4713 70.2107 16.7012 72.7394 17.4481L67.059 25.0744L59.3631 35.222C58.4469 36.3817 58.5729 37.175 59.4158 38.2953L74.1113 58.0662ZM0.835218 36.3377L2.12245 29.9267C5.62684 17.2394 19.988 11.9673 29.8919 19.807C35.6799 24.418 37.1183 30.9403 36.832 38.2466H4.20676C3.71661 51.3978 13.0639 59.335 24.9812 55.2852C29.1612 53.8634 31.6235 50.5489 32.8557 46.4017C33.481 44.3235 34.5163 43.9988 36.4449 44.5926C35.46 49.7788 33.2382 54.1116 28.5428 56.823C21.5272 60.882 11.5133 59.5692 6.24526 53.9283C3.10735 50.6556 1.81095 46.5084 1.22918 42.0736C1.13756 41.3407 0.954322 40.6426 0.816895 39.9398C0.82911 38.7398 0.835218 37.5399 0.835218 36.34V36.3377ZM4.26631 35.4563H33.749C33.5566 25.9466 27.7091 19.1923 19.7177 19.1343C10.9453 19.0648 4.64653 25.6589 4.26631 35.4563Z" fill="url(#paint0_linear_62_245)"/>
</g>
<defs>
<linearGradient id="paint0_linear_62_245" x1="74.1113" y1="16.5174" x2="0.752375" y2="58.7039" gradientUnits="userSpaceOnUse">
<stop stop-color="#FF63D3"/>
<stop offset="0.260417" stop-color="#FF889A"/>
<stop offset="0.552083" stop-color="#FF9292"/>
<stop offset="0.776042" stop-color="#FFAD7E"/>
<stop offset="1" stop-color="#FFB578"/>
</linearGradient>
<clipPath id="clip0_62_245">
<rect width="73.2944" height="74.2222" fill="white" transform="translate(0.816895 0.555542)"/>
</clipPath>
</defs>
</svg>
