<svg width="31" height="31" viewBox="0 0 31 31" fill="none" xmlns="http://www.w3.org/2000/svg">
<path fill-rule="evenodd" clip-rule="evenodd" d="M15.0973 3.00037C8.23051 3.00037 2.66504 8.56583 2.66504 15.4326C2.66504 20.9245 6.22619 25.5851 11.1672 27.2304C11.7892 27.3426 12.0135 26.9599 12.0135 26.6309C12.0135 26.3354 12.0036 25.5527 11.9998 24.5168C8.54088 25.2672 7.81045 22.8491 7.81045 22.8491C7.24705 21.4132 6.43061 21.0305 6.43061 21.0305C5.30256 20.2589 6.51662 20.2764 6.51662 20.2764C7.76557 20.3636 8.41997 21.5577 8.41997 21.5577C9.52932 23.4574 11.3317 22.9089 12.0372 22.5911C12.1506 21.7871 12.4747 21.2386 12.8287 20.9283C10.069 20.6154 7.16727 19.5484 7.16727 14.7832C7.16727 13.4283 7.65215 12.3164 8.44365 11.4489C8.31776 11.1336 7.88773 9.86839 8.56705 8.15824C8.56705 8.15824 9.61034 7.82294 11.9849 9.43088C12.999 9.155 14.0451 9.01418 15.096 9.01207C16.147 9.01377 17.1932 9.1546 18.2072 9.43088C20.583 7.82169 21.625 8.15824 21.625 8.15824C22.3043 9.86839 21.8781 11.1336 21.7484 11.4489C22.5462 12.3164 23.0248 13.427 23.0248 14.7832C23.0248 19.5609 20.1205 20.6104 17.3509 20.9183C17.7934 21.3022 18.1923 22.0601 18.1923 23.2193C18.1923 24.8821 18.1773 26.2233 18.1773 26.6309C18.1773 26.9637 18.3992 27.3501 19.0336 27.2279C23.9721 25.5801 27.5295 20.9233 27.5295 15.4326C27.5295 8.56583 21.9641 3.00037 15.0973 3.00037Z" fill="url(#paint0_linear_62_224)"/>
<defs>
<linearGradient id="paint0_linear_62_224" x1="27.6728" y1="2.67059" x2="-1.8792" y2="20.2079" gradientUnits="userSpaceOnUse">
<stop stop-color="#FF63D3"/>
<stop offset="0.21865" stop-color="#FF889A"/>
<stop offset="0.473958" stop-color="#FF9292"/>
<stop offset="0.75" stop-color="#FFB578"/>
<stop offset="1" stop-color="#FFAD7E"/>
</linearGradient>
</defs>
</svg>
