<svg width="78" height="78" viewBox="0 0 78 78" fill="none" xmlns="http://www.w3.org/2000/svg">
<path d="M10.437 10.2424H68.1912V67.9966H10.437V10.2424ZM63.4585 54.2222C63.0382 51.588 61.3216 49.3741 56.2329 47.3078C54.4617 46.4768 52.4949 45.9024 51.9045 44.5677C51.6863 43.7719 51.6542 43.342 51.7954 42.8703C52.158 41.3174 53.9997 40.8521 55.4436 41.2821C56.3837 41.5709 57.25 42.2928 57.7922 43.4511C60.2789 41.8243 60.2789 41.8243 62.0147 40.743C61.3634 39.7356 61.0393 39.296 60.6061 38.8628C59.0885 37.1687 57.0671 36.3024 53.7847 36.3762L52.0906 36.5912C50.4639 36.989 48.9109 37.8585 47.974 39.0104C45.2307 42.1163 46.0232 47.5292 49.3441 49.7719C52.6264 52.2265 57.4329 52.7655 58.0457 55.0757C58.6232 57.8928 55.9537 58.7944 53.3131 58.4704C51.3655 58.034 50.281 57.0618 49.0906 55.2554L44.6884 57.7837C45.1922 58.9356 45.7697 59.4426 46.636 60.4533C50.8232 64.6757 61.2928 64.4608 63.1698 58.034C63.2372 57.819 63.7473 56.3399 63.3494 54.065L63.4585 54.2222ZM41.8424 36.7869H36.4328C36.4328 41.4489 36.4103 46.0853 36.4103 50.757C36.4103 53.7217 36.5611 56.4426 36.0767 57.28C35.2841 58.9388 33.2339 58.7271 32.3066 58.4319C31.3536 57.9634 30.8692 57.3121 30.3077 56.3752C30.1569 56.1249 30.0445 55.9067 30.0028 55.9067L25.6135 58.6148C26.3483 60.1324 27.4199 61.4351 28.8028 62.2629C30.8595 63.4918 33.6221 63.8896 36.5162 63.2415C38.4029 62.696 40.0296 61.5763 40.8735 59.8436C42.1055 57.6073 41.8424 54.8607 41.8328 51.7933C41.8585 46.8489 41.8328 41.9013 41.8328 36.9216L41.8424 36.7869Z" fill="url(#paint0_linear_62_261)"/>
<defs>
<linearGradient id="paint0_linear_62_261" x1="68.1912" y1="10.1432" x2="11.0437" y2="68.688" gradientUnits="userSpaceOnUse">
<stop stop-color="#FF63D3"/>
<stop offset="0.260417" stop-color="#FF889A"/>
<stop offset="0.552083" stop-color="#FF9292"/>
<stop offset="0.776042" stop-color="#FFAD7E"/>
<stop offset="1" stop-color="#FFB578"/>
</linearGradient>
</defs>
</svg>
