<svg width="82" height="38" viewBox="0 0 82 38" fill="none" xmlns="http://www.w3.org/2000/svg">
<path d="M20.9836 15.474V15.4651L20.8328 15.4495C20.5696 15.4093 20.3019 15.3806 20.0299 15.3633C19.9398 15.3576 19.85 15.3537 19.7606 15.3505C12.4252 14.774 8.05185 16.4994 5.53978 19.2464C0.129272 25.1639 3.51346 36.0942 4.07122 37.831C4.07441 37.8409 4.09428 37.8888 4.12196 37.9644C4.1248 37.9644 4.21244 37.4095 4.33768 36.895C4.40865 36.6062 4.47216 36.4007 4.54454 36.1761C4.65879 35.8213 4.82839 35.3395 5.06576 34.7739C5.04016 35.0133 5.04624 35.255 5.08385 35.4928C5.11933 35.7262 5.17788 36.0846 5.4344 36.4458C5.6234 36.7083 5.87568 36.9187 6.1678 37.0575C6.05213 36.5303 5.68561 34.5561 6.80965 32.5628C7.35642 31.6031 8.14652 30.8046 9.10031 30.2476C9.66817 29.9322 10.2625 29.667 10.8765 29.455C11.5797 29.2549 13.627 28.878 19.0918 28.8585L19.1358 28.8617C19.4518 28.8816 19.7685 28.8854 20.0849 28.8731H20.0955C20.175 28.87 20.2541 28.8657 20.3329 28.8603H20.3439H20.3421C24.1549 28.6048 27.2361 25.992 27.4596 22.6156C27.6889 19.1637 24.856 16.1265 20.9836 15.474Z" fill="url(#paint0_linear_62_1024)"/>
<path d="M28.8058 0H14.5644V0.0131278C-6.38436 0.725943 1.51373 21.0555 1.51373 21.0555C2.10981 19.9418 3.70433 17.3197 6.94234 15.4566C10.2116 13.5761 13.3115 13.5293 14.5725 13.579H28.8069C33.2342 13.579 36.8231 10.5393 36.8231 6.78931C36.8231 3.03931 33.2331 0 28.8058 0Z" fill="url(#paint1_linear_62_1024)"/>
<path d="M55.1574 22.28C55.1574 23.84 54.4374 24.62 53.2074 24.62C51.8874 24.62 51.1074 23.75 51.1074 21.95H46.0074C46.0074 26.69 49.0374 29.21 53.3574 29.21C57.5274 29.21 60.2874 26.81 60.2874 22.28V7.94H55.1574V22.28ZM64.4312 29H69.5612V20.48H75.9812V16.49H69.5612V12.05H78.1412V7.94H64.4312V29Z" fill="#F1F1F1"/>
<defs>
<linearGradient id="paint0_linear_62_1024" x1="2.51502" y1="26.6023" x2="27.4731" y2="26.6023" gradientUnits="userSpaceOnUse">
<stop stop-color="#FFB578"/>
<stop offset="0.06" stop-color="#FFAD7E"/>
<stop offset="0.3" stop-color="#FF9292"/>
<stop offset="0.45" stop-color="#FF889A"/>
<stop offset="0.98" stop-color="#FF63D3"/>
</linearGradient>
<linearGradient id="paint1_linear_62_1024" x1="1.19866" y1="13.5925" x2="35.3439" y2="1.74532" gradientUnits="userSpaceOnUse">
<stop stop-color="#FFB578"/>
<stop offset="0.06" stop-color="#FFAD7E"/>
<stop offset="0.3" stop-color="#FF9292"/>
<stop offset="0.45" stop-color="#FF889A"/>
<stop offset="0.98" stop-color="#FF63D3"/>
</linearGradient>
</defs>
</svg>
