<?xml version="1.0" encoding="utf-8"?>
<!-- Generator: Adobe Illustrator 26.0.0, SVG Export Plug-In . SVG Version: 6.00 Build 0)  -->
<svg version="1.1" id="Capa_1" xmlns="http://www.w3.org/2000/svg" xmlns:xlink="http://www.w3.org/1999/xlink" x="0px" y="0px"
	 viewBox="0 0 90 90" style="enable-background:new 0 0 90 90;" xml:space="preserve">
<style type="text/css">
	.st0{clip-path:url(#SVGID_00000075127299635344596620000012792811749235830190_);}
	.st1{fill:url(#SVGID_00000043421971374520339080000003709640633812946094_);}
</style>
<g>
	<defs>
		<rect id="SVGID_1_" x="2.5" y="2.5" width="85.1" height="85.1"/>
	</defs>
	<clipPath id="SVGID_00000131336642664703461680000016270604395910360754_">
		<use xlink:href="#SVGID_1_"  style="overflow:visible;"/>
	</clipPath>
	<g style="clip-path:url(#SVGID_00000131336642664703461680000016270604395910360754_);">
		
			<linearGradient id="SVGID_00000023256855085212013610000002504757455087954837_" gradientUnits="userSpaceOnUse" x1="87.5341" y1="89.5298" x2="2.4702" y2="4.4659" gradientTransform="matrix(1 0 0 -1 0 92)">
			<stop  offset="0" style="stop-color:#FF63D3"/>
			<stop  offset="0.25" style="stop-color:#FF889A"/>
			<stop  offset="0.5" style="stop-color:#FF9292"/>
			<stop  offset="0.7292" style="stop-color:#FFB578"/>
			<stop  offset="1" style="stop-color:#FFAD7E"/>
		</linearGradient>
		<path style="fill:url(#SVGID_00000023256855085212013610000002504757455087954837_);" d="M42.2,2.5c-0.2,0-0.8,0.1-1.3,0.1
			c-12.1,1.1-23.4,7.6-30.6,17.6c-4,5.6-6.5,11.9-7.5,18.6c-0.3,2.3-0.4,3-0.4,6.2s0,3.9,0.4,6.2c2.3,16,13.7,29.4,29.1,34.4
			c2.8,0.9,5.7,1.5,9,1.9c1.3,0.1,6.9,0.1,8.1,0c5.7-0.6,10.6-2,15.3-4.5c0.7-0.4,0.9-0.5,0.8-0.6c-0.1,0-3.2-4.2-6.9-9.3l-6.8-9.2
			l-8.5-12.6c-4.7-6.9-8.5-12.6-8.6-12.6c0,0-0.1,5.6-0.1,12.4c0,12,0,12.5-0.2,12.7c-0.2,0.4-0.4,0.6-0.7,0.8
			c-0.3,0.1-0.5,0.2-1.8,0.2h-1.4l-0.4-0.2c-0.2-0.2-0.4-0.4-0.6-0.6L29,63.6l0-16.7l0-16.7l0.3-0.3c0.1-0.2,0.4-0.4,0.6-0.5
			c0.3-0.2,0.5-0.2,1.9-0.2c1.7,0,2,0.1,2.4,0.5c0.1,0.1,4.7,7.1,10.3,15.5c5.5,8.4,13.1,19.8,16.8,25.4l6.7,10.2l0.3-0.2
			c3-2,6.2-4.8,8.7-7.7c5.4-6.2,8.8-13.7,10-21.7c0.3-2.3,0.4-3,0.4-6.2s0-3.9-0.4-6.2c-2.3-16-13.7-29.4-29.1-34.4
			c-2.7-0.9-5.6-1.5-8.9-1.9C48.4,2.5,42.9,2.4,42.2,2.5z M59.6,28.2c0.4,0.2,0.7,0.6,0.8,1c0.1,0.2,0.1,4.8,0.1,15.3l0,14.9l-2.6-4
			l-2.6-4V40.5c0-7,0-11,0.1-11.2c0.1-0.5,0.4-0.8,0.8-1c0.3-0.2,0.5-0.2,1.8-0.2C59.1,28,59.4,28.1,59.6,28.2z"/>
	</g>
</g>
</svg>
