<svg width="78" height="79" viewBox="0 0 78 79" fill="none" xmlns="http://www.w3.org/2000/svg">
<path d="M60.1075 31.8145C57.6722 30.9758 55.5227 29.4677 53.9053 27.4632C52.1227 25.2299 49.8529 23.4338 47.2696 22.2125C44.6862 20.9912 41.8578 20.3769 39.0005 20.4167C35.157 20.1445 31.352 21.33 28.3432 23.737C25.3344 26.1441 23.3426 29.5961 22.7644 33.4056C23.9031 31.5003 25.617 30.0053 27.6593 29.1359C29.7016 28.2665 31.9671 28.0674 34.1297 28.5673C36.5609 29.4304 38.7069 30.9472 40.3319 32.951C42.1242 35.1665 44.3983 36.944 46.9811 38.1482C49.5639 39.3523 52.3874 39.9515 55.2367 39.9001C59.0802 40.1723 62.8852 38.9868 65.894 36.5798C68.9028 34.1727 70.8946 30.7207 71.4728 26.9112C70.3547 28.8393 68.6464 30.3568 66.5999 31.2397C64.5534 32.1226 62.2772 32.3241 60.1075 31.8145ZM17.8936 47.9856C20.3288 48.8244 22.4784 50.3324 24.0958 52.3369C25.8784 54.5703 28.1481 56.3663 30.7315 57.5876C33.3148 58.8089 36.1433 59.4232 39.0005 59.3834C42.8441 59.6556 46.6491 58.4701 49.6579 56.0631C52.6667 53.656 54.6585 50.204 55.2367 46.3945C54.0979 48.2998 52.3841 49.7948 50.3418 50.6642C48.2995 51.5337 46.034 51.7328 43.8714 51.2329C41.4402 50.3697 39.2941 48.8529 37.6692 46.8491C35.872 44.6391 33.597 42.8655 31.0153 41.6619C28.4336 40.4582 25.6126 39.8558 22.7644 39.9001C18.9209 39.6279 15.1159 40.8133 12.1071 43.2204C9.09826 45.6274 7.10646 49.0794 6.52832 52.889C7.64636 50.9608 9.35473 49.4433 11.4012 48.5604C13.4477 47.6775 15.7238 47.476 17.8936 47.9856Z" fill="url(#paint0_linear_62_257)"/>
<defs>
<linearGradient id="paint0_linear_62_257" x1="71.4728" y1="20.2158" x2="6.94591" y2="63.8176" gradientUnits="userSpaceOnUse">
<stop stop-color="#FF63D3"/>
<stop offset="0.260417" stop-color="#FF889A"/>
<stop offset="0.552083" stop-color="#FF9292"/>
<stop offset="0.776042" stop-color="#FFAD7E"/>
<stop offset="1" stop-color="#FFB578"/>
</linearGradient>
</defs>
</svg>
